<svg xmlns="http://www.w3.org/2000/svg" viewBox="0 0 160 100" width="160" height="100">
<g fill="none" stroke="#5f7269" stroke-width="1.5" stroke-linecap="round" stroke-linejoin="round">
<path d="M20,68.0 V60.0 H2.0 V75 H4.0" stroke="#5f7269"/>
<path d="M24,82.0 V93"/>
<path d="M58,82.0 V93"/>
<path d="M92,82.0 V93"/>
<path d="M126,82.0 V93"/>
<path d="M24,93 H135"/>
</g>
<path d="M4.0,72 L4.0,78 L9.0,75 Z" fill="#5f7269"/>
<path d="M135,90 L135,96 L140,93 Z" fill="#5f7269"/>
<text x="143" y="96" font-family="Menlo, monospace" font-size="7" fill="#9fb3a8">OUT</text>
<rect x="10.0" y="68.0" width="28" height="14" rx="3" fill="#7fb0f0"/>
<text x="24" y="78.5" text-anchor="middle" font-family="Menlo, monospace" font-size="9" font-weight="bold" fill="#0b0f12">1</text>
<rect x="44.0" y="68.0" width="28" height="14" rx="3" fill="#7fb0f0"/>
<text x="58" y="78.5" text-anchor="middle" font-family="Menlo, monospace" font-size="9" font-weight="bold" fill="#0b0f12">2</text>
<rect x="78.0" y="68.0" width="28" height="14" rx="3" fill="#7fb0f0"/>
<text x="92" y="78.5" text-anchor="middle" font-family="Menlo, monospace" font-size="9" font-weight="bold" fill="#0b0f12">3</text>
<rect x="112.0" y="68.0" width="28" height="14" rx="3" fill="#7fb0f0"/>
<text x="126" y="78.5" text-anchor="middle" font-family="Menlo, monospace" font-size="9" font-weight="bold" fill="#0b0f12">4</text>
</svg>
